<?xml version="1.0" encoding="UTF-8"?>
<svg id="Capa_1" data-name="Capa 1" xmlns="http://www.w3.org/2000/svg" viewBox="0 0 97.61 91.49">
  <defs>
    <style>
      .cls-1 {
        fill: none;
        stroke: #d80003;
        stroke-linecap: round;
        stroke-linejoin: round;
        stroke-width: 4px;
      }
    </style>
  </defs>
  <path class="cls-1" d="m74.93,12.76c-4.66-.15-9.31-.45-13.97-.42-15.62.08-31.23.28-46.85.42-3.75.03-7.51,0-11.26,0"/>
  <path class="cls-1" d="m57.81,32.58c-4.73-2.39-8.55-2.24-11.26.45-2.94,2.91-3.62,6.79-1.8,10.36,2.08,4.11,3.94,4.96,10.81,4.96,6.7-5.51,7.51-9.24,3.15-14.42"/>
  <path class="cls-1" d="m13.66,24.93c15.47,0,30.93-.01,46.4.02,1.5,0,3,.28,4.51.43"/>
  <path class="cls-1" d="m86.19,1.5c-5.56,6.46-11.05,12.96-16.68,19.36-5.48,6.22-11.1,12.33-16.65,18.48"/>
  <path class="cls-1" d="m1.5,12.31c10.36,11.56,20.72,23.13,31.08,34.69l11.26,13.97s2.25,1.12,2.25,5.86v18.88h-5.01s-5.14-.21-7.71,4.29h30.86s1.71-4.29-6-4.29h-7.21l.04-18.88c-.2-2.44.4-4.43,2.2-6.36,7.04-7.54,13.92-15.22,20.76-22.94,7.42-8.36,14.73-16.81,22.09-25.22"/>
  <path class="cls-1" d="m67.27,24.48c5.56.15,11.11.3,16.67.45"/>
  <path class="cls-1" d="m78.54,12.76h13.97"/>
  <path class="cls-1" d="m46.1,47c-.75,1.05-1.5,2.1-2.25,3.15"/>
</svg>